<svg xmlns="http://www.w3.org/2000/svg" width="30" height="30" viewBox="0 0 30 30"><defs><style>.a{fill:none;}.b{fill:#00bab3;}</style></defs><g transform="translate(-328 -504)"><rect class="a" width="30" height="30" transform="translate(328 504)"/><path class="b" d="M18.871,11.472a.783.783,0,0,0-.006,1.1l3.641,3.647H8.648a.779.779,0,0,0,0,1.557H22.5l-3.641,3.647a.788.788,0,0,0,.006,1.1.775.775,0,0,0,1.1-.006L24.9,17.551h0a.874.874,0,0,0,.162-.246.743.743,0,0,0,.06-.3.781.781,0,0,0-.222-.545L19.961,11.49A.763.763,0,0,0,18.871,11.472Z" transform="translate(326.125 501.749)"/></g></svg>