<svg xmlns="http://www.w3.org/2000/svg" width="180" height="50" viewBox="0 0 180 50"><defs><style>.a,.f{fill:none;}.a{stroke:#00bab3;stroke-width:1.5px;}.b,.c,.d{fill:#00bab3;}.b{font-size:18px;font-family:Nunito-Bold, Nunito;font-weight:700;}.c{font-size:12px;font-family:Nunito-SemiBold, Nunito;font-weight:600;}.e{stroke:none;}</style></defs><g transform="translate(-1061 -4288)"><g class="a" transform="translate(1061 4288)"><rect class="e" width="180" height="50" rx="5"/><rect class="f" x="0.75" y="0.75" width="178.5" height="48.5" rx="4.25"/></g><text class="b" transform="translate(1117 4324.393)"><tspan x="0" y="0">Google Play</tspan></text><text class="c" transform="translate(1117 4306.393)"><tspan x="0" y="0">Disponível no</tspan></text><path class="d" d="M6.151,2,17.879,13.643l3.215-3.215L6.878,2.22A1.556,1.556,0,0,0,6.151,2Zm-.982.542A1.335,1.335,0,0,0,5,3.2V25.828a1.218,1.218,0,0,0,.1.491L17.1,14.4Zm16.906,8.445L18.64,14.4l3.435,3.4,4.2-2.4a1.067,1.067,0,0,0,.017-1.98C25.932,13.231,23.277,11.684,22.076,10.986Zm-4.2,4.18L6.049,26.894a1.332,1.332,0,0,0,.609-.169l9.832-5.686,4.62-2.657Z" transform="translate(1076.468 4299)"/></g></svg>