<svg xmlns="http://www.w3.org/2000/svg" width="25" height="25" viewBox="0 0 25 25"><defs><style>.a{fill:none;}.b,.c{fill:#00bab3;}.b{stroke:#00bab3;stroke-width:0.5px;}</style></defs><rect class="a" width="25" height="25"/><rect class="a" width="25" height="25"/><g transform="translate(1.997 4.581)"><g transform="translate(0 0)"><path class="b" d="M19.511,71.5H2.095A2.342,2.342,0,0,0,0,74.027V86.3a2.342,2.342,0,0,0,2.095,2.527H19.516A2.342,2.342,0,0,0,21.611,86.3V74.027A2.35,2.35,0,0,0,19.511,71.5ZM20.6,86.291h-.005a1.209,1.209,0,0,1-1.08,1.3H2.095a1.209,1.209,0,0,1-1.08-1.3V74.027a1.209,1.209,0,0,1,1.08-1.3H19.516a1.209,1.209,0,0,1,1.08,1.3V86.291Z" transform="translate(0 -71.5)"/></g><g transform="translate(12.968 5.685)"><path class="c" d="M251.7,177.5h-3.819a.586.586,0,0,0,0,1.171H251.7a.586.586,0,1,0,0-1.171Z" transform="translate(-247.3 -177.5)"/></g><path class="c" d="M10.754,7.129A1.248,1.248,0,1,1,9.506,8.377a1.248,1.248,0,0,1,1.248-1.248m0,5.348c1.765,0,3.625.868,3.625,1.248v.654H7.129v-.654c0-.38,1.86-1.248,3.625-1.248m0-6.477a2.377,2.377,0,1,0,2.377,2.377A2.376,2.376,0,0,0,10.754,6Zm0,5.348c-1.587,0-4.754.8-4.754,2.377v1.783h9.508V13.725C15.508,12.145,12.341,11.348,10.754,11.348Z" transform="translate(-2.811 -2.582)"/></g></svg>