<svg xmlns="http://www.w3.org/2000/svg" width="44.929" height="63.437" viewBox="0 0 44.929 63.437"><defs><style>.a{fill:#00bab3;}</style></defs><g transform="translate(-74.688)"><g transform="translate(82.619)"><g transform="translate(0)"><path class="a" d="M167,2.762a35.674,35.674,0,0,0-27.534,0,1.321,1.321,0,0,0,1.1,2.4,33.057,33.057,0,0,1,25.332,0,1.3,1.3,0,0,0,.547.119A1.322,1.322,0,0,0,167,2.762Z" transform="translate(-138.697)"/></g></g><g transform="translate(77.333 5.286)"><g transform="translate(0)"><path class="a" d="M135.305,50.989a26.874,26.874,0,0,0-38.887,0A1.322,1.322,0,1,0,98.3,52.848a24.228,24.228,0,0,1,35.123,0,1.322,1.322,0,0,0,1.885-1.856Z" transform="translate(-96.037 -42.666)"/></g></g><g transform="translate(90.588 10.573)"><g transform="translate(0)"><path class="a" d="M209.58,85.333a22.58,22.58,0,0,0-5.564.692,1.321,1.321,0,1,0,.65,2.561A19.852,19.852,0,0,1,229.4,107.8a1.322,1.322,0,0,0,2.643,0A22.492,22.492,0,0,0,209.58,85.333Z" transform="translate(-203.019 -85.333)"/></g></g><g transform="translate(74.688 13.43)"><path class="a" d="M87.677,109.047a1.323,1.323,0,0,0-1.808-.473,22.5,22.5,0,0,0-4.652,3.621,22.811,22.811,0,0,0-6.529,15.79,1.32,1.32,0,0,0,1.3,1.34h.021a1.319,1.319,0,0,0,1.319-1.3A20.182,20.182,0,0,1,83.1,114.05a19.854,19.854,0,0,1,4.108-3.2A1.323,1.323,0,0,0,87.677,109.047Z" transform="translate(-74.688 -108.394)"/></g><g transform="translate(76.588 15.859)"><g transform="translate(0)"><path class="a" d="M123.538,133.9a17.192,17.192,0,0,0-12.952-5.9,16.988,16.988,0,0,0-12.172,5.088,17.54,17.54,0,0,0-5.006,12.487,22.62,22.62,0,0,1-2.471,9.529l-.743,1.322a1.323,1.323,0,1,0,2.3,1.3l.78-1.39a25.058,25.058,0,0,0,2.773-10.826,14.873,14.873,0,0,1,4.24-10.56,14.37,14.37,0,0,1,10.3-4.3,14.538,14.538,0,0,1,10.959,5,1.323,1.323,0,0,0,1.993-1.739Z" transform="translate(-90.024 -128)"/></g></g><g transform="translate(110.784 26.441)"><g transform="translate(0)"><path class="a" d="M372.026,235.238l-1.491-4.877a49.253,49.253,0,0,1-.954-9.658l-.013-.7a17.1,17.1,0,0,0-.981-5.72,1.321,1.321,0,1,0-2.49.883,14.5,14.5,0,0,1,.827,4.871l.016.719a51.6,51.6,0,0,0,1.041,10.271l1.512,4.98a1.319,1.319,0,0,0,1.266.936,1.4,1.4,0,0,0,.386-.055A1.323,1.323,0,0,0,372.026,235.238Z" transform="translate(-366.021 -213.403)"/></g></g><g transform="translate(79.188 21.146)"><path class="a" d="M144.753,203.9l-1.229-3.936a67,67,0,0,1-2.659-17.405,11.894,11.894,0,1,0-23.786.23c.005,1.39-.251,8.736-5.834,16.787a1.322,1.322,0,1,0,2.17,1.509c5.884-8.482,6.315-16.155,6.307-18.339a9.251,9.251,0,1,1,18.5-.153A68.555,68.555,0,0,0,141,200.768l1.221,3.92a1.323,1.323,0,0,0,1.263.928,1.368,1.368,0,0,0,.394-.058A1.323,1.323,0,0,0,144.753,203.9Z" transform="translate(-111.008 -170.667)"/></g><g transform="translate(82.183 26.432)"><path class="a" d="M156.757,219.942a6.608,6.608,0,1,0-13.216.05c.016.436.309,10.819-8.086,21.743a1.321,1.321,0,1,0,2.1,1.61c8.968-11.672,8.646-22.977,8.63-23.4a3.966,3.966,0,1,1,7.932.029c.037,1.48.045,14.834-10.274,28.24a1.321,1.321,0,1,0,2.093,1.612C156.826,235.677,156.794,221.483,156.757,219.942Z" transform="translate(-135.182 -213.334)"/></g><g transform="translate(95.392 31.719)"><path class="a" d="M244.863,257.264A1.289,1.289,0,0,0,243.486,256a1.325,1.325,0,0,0-1.263,1.377,28.123,28.123,0,0,1-.418,5.012,1.328,1.328,0,0,0,1.1,1.517,1.457,1.457,0,0,0,.212.016,1.321,1.321,0,0,0,1.3-1.11A29.618,29.618,0,0,0,244.863,257.264Z" transform="translate(-241.788 -256.001)"/></g><g transform="translate(85.776 42.328)"><g transform="translate(0)"><path class="a" d="M174.276,341.689a1.322,1.322,0,0,0-1.644.891,45.518,45.518,0,0,1-8.165,15.513,1.323,1.323,0,0,0,.209,1.858,1.324,1.324,0,0,0,1.858-.209,48.169,48.169,0,0,0,8.635-16.409A1.323,1.323,0,0,0,174.276,341.689Z" transform="translate(-164.179 -341.634)"/></g></g><g transform="translate(96.82 48.296)"><path class="a" d="M265.177,399.722l-1.594-5.062c-.634-1.9-1.226-3.9-1.229-3.912a1.32,1.32,0,0,0-1.192-.946,1.3,1.3,0,0,0-1.293.8,99.793,99.793,0,0,1-6.349,12.3,1.321,1.321,0,1,0,2.231,1.417,90.23,90.23,0,0,0,5.109-9.486c.069.211.14.426.212.637l1.583,5.038a1.322,1.322,0,1,0,2.522-.793Z" transform="translate(-253.314 -389.799)"/></g></g></svg>