<svg xmlns="http://www.w3.org/2000/svg" width="68" height="68" viewBox="0 0 68 68"><defs><style>.a{fill:none;}.b{fill:#00bab3;}</style></defs><g transform="translate(-93 -1111)"><rect class="a" width="68" height="68" transform="translate(93 1111)"/><g transform="translate(69.422 1117.001)"><g transform="translate(36.578 0)"><g transform="translate(0)"><path class="b" d="M81.022,17.615H70.454V5.218A5.444,5.444,0,0,0,64.831,0h-23.1A5.013,5.013,0,0,0,36.58,4.873q0,.173,0,.345V51.69a5.013,5.013,0,0,0,4.8,5.214q.172.007.345,0H64.9a5.352,5.352,0,0,0,5.553-5.143c0-.024,0-.049,0-.073V40.648H81.022c1.761,0,2.981-1.761,2.981-3.523V21.07A3.258,3.258,0,0,0,81.022,17.615ZM41.378,2.716a2.3,2.3,0,0,1,.353,0h23.1a2.735,2.735,0,0,1,2.913,2.507V7.454H39.292V5.218A2.3,2.3,0,0,1,41.378,2.716ZM67.744,51.69A2.642,2.642,0,0,1,64.978,54.2L64.9,54.2H41.731a2.3,2.3,0,0,1-2.439-2.507V46.744H67.744Zm0-7.655H39.292V10.163H67.744v7.452H53.721a3.794,3.794,0,0,0-3.59,3.455V37.125a3.861,3.861,0,0,0,3.59,3.523H67.744Zm13.549-6.91c0,.271,0,.813-.271.813h-27.3a1.219,1.219,0,0,1-.881-.813V30.486H81.293v6.639Zm0-9.349H52.841V25.744H81.293v2.032Zm0-6.707v1.965H52.841V21.07c0-.339.61-.745.881-.745h27.3C81.361,20.325,81.293,20.8,81.293,21.07Z" transform="translate(-36.578 0)"/><path class="b" d="M176.415,253.5h6.707a1.355,1.355,0,0,0,0-2.71h-6.707a1.355,1.355,0,1,0,0,2.71Z" transform="translate(-157.104 -218.272)"/></g></g></g></g></svg>