<svg xmlns="http://www.w3.org/2000/svg" width="30" height="30" viewBox="0 0 30 30"><defs><style>.a{fill:none;}.b{fill:#00bab3;}</style></defs><g transform="translate(-0.5)"><rect class="a" width="30" height="30" transform="translate(0.5)"/><g transform="translate(2.484 0.973)"><path class="b" d="M7,17.282a1.25,1.25,0,1,1-1.25-1.25A1.25,1.25,0,0,1,7,17.282Z" transform="translate(0 -3.181)"/><path class="b" d="M7,8.563a1.25,1.25,0,1,1-1.25-1.25A1.25,1.25,0,0,1,7,8.563Z"/><path class="b" d="M7,26a1.25,1.25,0,1,1-1.25-1.25A1.25,1.25,0,0,1,7,26Z" transform="translate(0 -6.362)"/><path class="b" d="M23.8,16.875H13.054a.715.715,0,0,0,0,1.429H23.8a.715.715,0,1,0,0-1.429Z" transform="translate(-2.86 -3.489)"/><path class="b" d="M23.8,25.594H13.054a.715.715,0,0,0,0,1.429H23.8a.715.715,0,1,0,0-1.429Z" transform="translate(-2.86 -6.67)"/><path class="b" d="M13.054,9.585H23.8a.715.715,0,1,0,0-1.429H13.054a.715.715,0,0,0,0,1.429Z" transform="translate(-2.86 -0.308)"/></g></g></svg>