<svg xmlns="http://www.w3.org/2000/svg" width="68" height="68" viewBox="0 0 68 68"><defs><style>.a{fill:none;}.b{fill:#00bab3;}</style></defs><g transform="translate(-93 -1111)"><rect class="a" width="68" height="68" transform="translate(93 1111)"/><g transform="translate(96.851 1115.059)"><path class="b" d="M17.7,26.522H15.821a.941.941,0,0,1-.94-.94H13A2.824,2.824,0,0,0,15.821,28.4H17.7a2.821,2.821,0,0,0,0-5.642H15.821a.94.94,0,1,1,0-1.881H17.7a.941.941,0,0,1,.94.94h1.881A2.824,2.824,0,0,0,17.7,19H15.821a2.821,2.821,0,0,0,0,5.642H17.7a.94.94,0,1,1,0,1.881Z" transform="translate(-0.716 -1.087)"/><path class="b" d="M45.194,23.555H32.03a4.7,4.7,0,0,0-.94.095V15.092a4.707,4.707,0,0,0-4.7-4.7h-.94V3.306L21.691.8l-2.82,1.881L16.051.8,13.23,2.68,10.406.8,6.642,3.306v7.085H5.7a4.707,4.707,0,0,0-4.7,4.7V32.24l.1.2a16.953,16.953,0,0,1,1.782,7.546V52.7a4.707,4.707,0,0,0,4.7,4.7H24.507a4.668,4.668,0,0,0,3.123-1.213,4.7,4.7,0,0,0,4.4,3.094H45.194a4.707,4.707,0,0,0,4.7-4.7V28.257A4.707,4.707,0,0,0,45.194,23.555Zm0,1.881a2.824,2.824,0,0,1,2.821,2.821v2.821H29.209V28.257a2.824,2.824,0,0,1,2.821-2.821ZM43.313,46.122a.94.94,0,1,1-.94.94A.941.941,0,0,1,43.313,46.122Zm-.771-1.881H34.587L33.334,40.48h9.961Zm-7.692,2.821a.94.94,0,1,1-.94-.94A.941.941,0,0,1,34.851,47.063Zm9.572-12.224L43.671,38.6H30.726L32.7,44.525a2.817,2.817,0,1,0,4.031,2.538,2.789,2.789,0,0,0-.173-.94h4.108a2.767,2.767,0,0,0-.174.94,2.821,2.821,0,1,0,3.923-2.6l1.55-7.747h2.05V51.764H29.209V32.958H48.015v1.881ZM8.522,4.312l1.884-1.254,2.826,1.881,2.82-1.88,2.82,1.881,2.819-1.881,1.876,1.253v6.079H8.522ZM24.507,55.525H7.582A2.824,2.824,0,0,1,4.761,52.7V39.984A18.849,18.849,0,0,0,2.881,31.8V15.092A2.824,2.824,0,0,1,5.7,12.272H26.388a2.824,2.824,0,0,1,2.821,2.821V24.52a4.682,4.682,0,0,0-1.881,3.737v-14.1H4.761V31.077H27.328V52.7a2.824,2.824,0,0,1-2.821,2.821Zm.94-39.493V29.2H6.642V16.033ZM45.194,57.406H32.03a2.824,2.824,0,0,1-2.821-2.821v-.94H48.015v.94A2.824,2.824,0,0,1,45.194,57.406Z"/><path class="b" d="M40,29h5.642v1.881H40Z" transform="translate(-2.328 -1.684)"/><path class="b" d="M36,29h1.881v1.881H36Z" transform="translate(-2.09 -1.684)"/><path class="b" d="M7,56.164H25.806V43H7ZM8.881,52.4h3.761v1.881H8.881Zm9.4-3.761v1.881H14.522V48.642Zm-3.761-1.881V44.881h3.761v1.881Zm5.642,1.881h3.761v1.881H20.164ZM18.284,52.4v1.881H14.522V52.4Zm-5.642-1.881H8.881V48.642h3.761Zm7.522,3.761V52.4h3.761v1.881Zm3.761-7.522H20.164V44.881h3.761ZM12.642,44.881v1.881H8.881V44.881Z" transform="translate(-0.358 -2.52)"/><path class="b" d="M16.821,40.642A2.821,2.821,0,1,0,14,37.821,2.824,2.824,0,0,0,16.821,40.642Zm0-3.761a.94.94,0,1,1-.94.94A.941.941,0,0,1,16.821,36.881Z" transform="translate(-0.776 -2.042)"/><path class="b" d="M25.761,35H23.881A1.882,1.882,0,0,0,22,36.881v1.881a1.882,1.882,0,0,0,1.881,1.881h1.881a1.882,1.882,0,0,0,1.881-1.881V36.881A1.882,1.882,0,0,0,25.761,35Zm-1.881,3.761V36.881h1.881v1.881Z" transform="translate(-1.254 -2.042)"/><path class="b" d="M9.761,40.642a1.882,1.882,0,0,0,1.881-1.881V36.881A1.882,1.882,0,0,0,9.761,35H7.881A1.882,1.882,0,0,0,6,36.881v1.881a1.882,1.882,0,0,0,1.881,1.881ZM7.881,36.881H9.761v1.881H7.881Z" transform="translate(-0.299 -2.042)"/><path class="b" d="M11,7H22.284V8.881H11Z" transform="translate(-0.597 -0.37)"/><path class="b" d="M43.821,22.644a2.821,2.821,0,0,0,1.994-4.815,2.89,2.89,0,0,0-3.99,0,2.821,2.821,0,0,0,2,4.815Zm-.665-3.486a.94.94,0,0,1,1.33,1.33.96.96,0,0,1-1.33,0A.941.941,0,0,1,43.156,19.158Z" transform="translate(-2.388 -0.969)"/><path class="b" d="M43.94,9H43v5.642h.94a4.707,4.707,0,0,1,4.7,4.7v.94h5.642v-.94A10.356,10.356,0,0,0,43.94,9Zm6.515,9.4a6.6,6.6,0,0,0-5.575-5.575v-1.9a8.479,8.479,0,0,1,7.471,7.47h-1.9Z" transform="translate(-2.507 -0.49)"/><path class="b" d="M43.94,1H43V6.642h.94A12.238,12.238,0,0,1,56.164,18.866v.94h5.642v-.94A17.885,17.885,0,0,0,43.94,1ZM58.014,17.925A14.126,14.126,0,0,0,44.881,4.792V2.908A16.009,16.009,0,0,1,59.9,17.925Z" transform="translate(-2.507 -0.012)"/></g></g></svg>