<svg xmlns="http://www.w3.org/2000/svg" width="38.17" height="38.17" viewBox="0 0 38.17 38.17"><defs><style>.a{fill:none;stroke:#00bab3;stroke-miterlimit:10;stroke-width:2px;}.b{fill:#00bab3;fill-rule:evenodd;}</style></defs><g transform="translate(1.203 1.203)"><ellipse class="a" cx="14.864" cy="14.864" rx="14.864" ry="14.864" transform="matrix(0.23, -0.973, 0.973, 0.23, 0, 28.932)"/><path class="b" d="M23.614,16.36c-1.848,0-2.115.01-2.879.044a5.425,5.425,0,0,0-1.8.344,3.793,3.793,0,0,0-2.173,2.173,5.4,5.4,0,0,0-.344,1.8c-.034.794-.044,1.045-.044,3.063s.01,2.269.044,3.063a5.425,5.425,0,0,0,.344,1.8,3.793,3.793,0,0,0,2.173,2.173,5.4,5.4,0,0,0,1.8.344c.794.034,1.045.044,3.063.044s2.269-.01,3.063-.044a5.4,5.4,0,0,0,1.8-.344,3.793,3.793,0,0,0,2.173-2.173,5.4,5.4,0,0,0,.344-1.8c.034-.769.044-1.031.044-2.879V23.6c0-1.848-.01-2.115-.044-2.879a5.4,5.4,0,0,0-.344-1.8,3.793,3.793,0,0,0-2.173-2.173,5.4,5.4,0,0,0-1.8-.344c-.769-.034-1.031-.044-2.879-.044h-.368Zm5.042,3.465a.89.89,0,1,1-.89-.89.891.891,0,0,1,.89.89ZM23.8,26.27a2.477,2.477,0,1,1,2.477-2.477A2.476,2.476,0,0,1,23.8,26.27Zm0-6.3a3.818,3.818,0,1,1-3.818,3.818A3.816,3.816,0,0,1,23.8,19.975Zm0-2.274c1.984,0,2.221.01,3,.044A4.116,4.116,0,0,1,28.181,18a2.459,2.459,0,0,1,1.413,1.413,4.116,4.116,0,0,1,.256,1.379c.034.784.044,1.021.044,3s-.01,2.221-.044,3a4.116,4.116,0,0,1-.256,1.379,2.459,2.459,0,0,1-1.413,1.413,4.116,4.116,0,0,1-1.379.256c-.784.034-1.016.044-3,.044s-2.221-.01-3-.044a4.116,4.116,0,0,1-1.379-.256A2.459,2.459,0,0,1,18,28.181a4.116,4.116,0,0,1-.256-1.379c-.034-.784-.044-1.021-.044-3s.01-2.221.044-3A4.116,4.116,0,0,1,18,19.413,2.459,2.459,0,0,1,19.414,18a4.116,4.116,0,0,1,1.379-.256C21.576,17.705,21.814,17.7,23.8,17.7Z" transform="translate(-5.915 -5.912)"/></g></svg>