<svg xmlns="http://www.w3.org/2000/svg" width="38.17" height="38.17" viewBox="0 0 38.17 38.17"><defs><style>.a{fill:none;stroke:#00bab3;stroke-miterlimit:10;stroke-width:2px;}.b{fill:#00bab3;fill-rule:evenodd;}</style></defs><g transform="translate(1.203 1.203)"><ellipse class="a" cx="14.864" cy="14.864" rx="14.864" ry="14.864" transform="matrix(0.23, -0.973, 0.973, 0.23, 0, 28.932)"/><path class="b" d="M29.71,22.245a8.672,8.672,0,0,1-13.34,7.7,6.136,6.136,0,0,0,4.514-1.263,3.049,3.049,0,0,1-2.85-2.119,3.064,3.064,0,0,0,1.379-.053,3.06,3.06,0,0,1-2.448-3.029,3.033,3.033,0,0,0,1.384.382,3.05,3.05,0,0,1-.944-4.069,8.677,8.677,0,0,0,6.285,3.189,3.052,3.052,0,0,1,5.2-2.782,6.087,6.087,0,0,0,1.935-.74,3.065,3.065,0,0,1-1.34,1.689,6.1,6.1,0,0,0,1.752-.479A6.2,6.2,0,0,1,29.71,22.245Z" transform="translate(-5.915 -7.399)"/></g></svg>