<svg width="29" height="35" viewBox="0 0 29 35" fill="none" xmlns="http://www.w3.org/2000/svg">
<path id="logo-apple-white" fill-rule="evenodd" clip-rule="evenodd" d="M20.9235 0.87146C19.2055 0.943295 17.1238 2.01239 15.8918 3.44972C14.7842 4.72618 13.8174 6.76334 14.0781 8.71666C15.9962 8.86624 17.9507 7.74601 19.1447 6.30794C20.3362 4.86728 21.143 2.86799 20.9235 0.87146ZM20.4379 34.8654C22.7657 34.8222 24.24 32.7599 25.6653 30.6848C27.2271 28.4119 27.9167 26.2081 28.0196 25.8795C28.0253 25.8612 28.0292 25.8487 28.0313 25.8424C28.0303 25.8419 28.0274 25.8407 28.0228 25.8388C27.7988 25.7482 23.4903 24.0031 23.4475 18.959C23.4054 14.7936 26.74 12.7215 27.1071 12.4934C27.1199 12.4855 27.129 12.4798 27.1344 12.4763C25.1272 9.55231 22.0019 9.15139 20.8884 9.10559C19.2618 8.94174 17.6837 9.56112 16.3944 10.0672C15.575 10.3888 14.8722 10.6646 14.3476 10.6646C13.7638 10.6646 13.0418 10.3792 12.2314 10.0588C11.1709 9.63949 9.95904 9.16041 8.70798 9.18333C5.81024 9.22654 3.13619 10.8633 1.64388 13.4503C-1.36969 18.6593 0.871059 26.3781 3.8069 30.6018C5.24395 32.6675 6.95271 34.9924 9.19994 34.9087C10.2033 34.8686 10.9174 34.5657 11.6559 34.2524C12.5094 33.8904 13.3955 33.5145 14.7984 33.5145C16.1346 33.5145 16.9797 33.8788 17.7926 34.2291C18.57 34.5642 19.318 34.8866 20.4379 34.8654Z" fill="white"/>
</svg>
