<svg xmlns="http://www.w3.org/2000/svg" width="101" height="45.601" viewBox="0 0 101 45.601"><defs><style>.a{fill:#00bab3;}</style></defs><g transform="translate(-103.764 -203.697)"><path class="a" d="M130.195,203.846v4.806H119.382V237.29h-4.805V208.652H103.764v-4.806Z" transform="translate(0 -0.123)"/><path class="a" d="M255.343,257.465l2.4,2.4a11.952,11.952,0,0,1,7.211-2.4v4.806a7.224,7.224,0,0,0-7.211,7.21v12.012h-4.8V257.465Z" transform="translate(-122.989 -44.329)"/><path class="a" d="M411.771,279.763a11.923,11.923,0,0,1-7.209,2.4,12.015,12.015,0,1,1,0-24.03,11.712,11.712,0,0,1,7.209,2.4l2.4-2.4h2.405v24.03a11.726,11.726,0,0,1-3.51,8.505,12.061,12.061,0,0,1-17.011,0l3.411-3.412a7.208,7.208,0,0,0,12.3-5.093Zm-7.209-2.4a7.218,7.218,0,1,0-5.093-2.114,7.012,7.012,0,0,0,5.093,2.114" transform="translate(-238.086 -44.883)"/><path class="a" d="M561.432,279.763a11.921,11.921,0,0,1-7.207,2.4,12.015,12.015,0,1,1,0-24.03,11.712,11.712,0,0,1,7.207,2.4l2.4-2.4h2.4v24.03a11.715,11.715,0,0,1-3.51,8.505,12.06,12.06,0,0,1-17.009,0l3.411-3.412a7.208,7.208,0,0,0,12.3-5.093Zm-7.207-2.4a7.217,7.217,0,1,0-5.1-2.114,7.008,7.008,0,0,0,5.1,2.114" transform="translate(-361.475 -44.883)"/><path class="a" d="M348.016,203.7a2.4,2.4,0,0,1,2.376,2.378,2.113,2.113,0,0,1-.7,1.632,2.257,2.257,0,0,1-1.674.7,2.388,2.388,0,0,1-2.333-2.33,2.267,2.267,0,0,1,.7-1.676,2.124,2.124,0,0,1,1.633-.7" transform="translate(-199.449)"/><rect class="a" width="4.807" height="24.031" transform="translate(146.476 213.136)"/></g></svg>