<svg xmlns="http://www.w3.org/2000/svg" width="25" height="25" viewBox="0 0 25 25"><defs><style>.a{fill:none;}.b{fill:#00bab3;}</style></defs><rect class="a" width="25" height="25"/><path class="b" d="M13.8,7.852A2.047,2.047,0,1,1,11.751,9.9,2.047,2.047,0,0,1,13.8,7.852m0,8.772c2.895,0,5.946,1.423,5.946,2.047v1.072H7.852V18.671c0-.624,3.051-2.047,5.946-2.047M13.8,6a3.9,3.9,0,1,0,3.9,3.9A3.9,3.9,0,0,0,13.8,6Zm0,8.772c-2.6,0-7.8,1.306-7.8,3.9v2.924H21.595V18.671C21.595,16.078,16.4,14.772,13.8,14.772Z" transform="translate(-0.909 -0.909)"/></svg>