<svg xmlns="http://www.w3.org/2000/svg" width="180" height="50" viewBox="0 0 180 50"><defs><style>.a,.f{fill:none;}.a{stroke:#00bab3;stroke-width:1.5px;}.b,.c,.d{fill:#00bab3;}.b{font-size:18px;font-family:Nunito-Bold, Nunito;font-weight:700;}.c{font-size:12px;font-family:Nunito-SemiBold, Nunito;font-weight:600;}.e{stroke:none;}</style></defs><g transform="translate(-1061 -4288)"><g class="a" transform="translate(1061 4288)"><rect class="e" width="180" height="50" rx="5"/><rect class="f" x="0.75" y="0.75" width="178.5" height="48.5" rx="4.25"/></g><text class="b" transform="translate(1117 4324.393)"><tspan x="0" y="0">App Store</tspan></text><text class="c" transform="translate(1117 4306.393)"><tspan x="0" y="0">Baixar na </tspan></text><g transform="translate(1080.05 4297.278)"><path class="d" d="M28.7,21.981a6.263,6.263,0,0,1,2.983-5.255A6.411,6.411,0,0,0,26.631,14c-2.125-.223-4.186,1.272-5.269,1.272-1.1,0-2.771-1.25-4.567-1.213a6.727,6.727,0,0,0-5.661,3.452c-2.448,4.238-.622,10.466,1.723,13.892,1.173,1.677,2.544,3.551,4.338,3.485,1.755-.073,2.411-1.119,4.53-1.119,2.1,0,2.714,1.119,4.545,1.077,1.884-.031,3.071-1.685,4.2-3.378a13.874,13.874,0,0,0,1.922-3.914A6.052,6.052,0,0,1,28.7,21.981Z" transform="translate(-9.972 -7.325)"/><path class="d" d="M22.9,13.138A6.167,6.167,0,0,0,24.31,8.72a6.274,6.274,0,0,0-4.06,2.1A5.868,5.868,0,0,0,18.8,15.075,5.188,5.188,0,0,0,22.9,13.138Z" transform="translate(-7.629 -8.72)"/></g></g></svg>