<svg width="31" height="32" viewBox="0 0 31 32" fill="none" xmlns="http://www.w3.org/2000/svg">
<g id="devolvemos">
<path id="Path" d="M21.5093 8.82344C21.1018 9.2715 20.4486 9.40989 19.8909 9.16632C18.5363 8.5748 17.0391 8.26218 15.4874 8.26218C10.0081 8.26218 5.62372 12.1502 5.62372 16.8674C5.62372 18.9627 6.48593 20.9452 8.03783 22.5044C8.5833 23.0525 8.57553 23.9334 8.02048 24.472C7.46542 25.0105 6.57327 25.0029 6.0278 24.4548C3.96967 22.387 2.80554 19.7103 2.80554 16.8674C2.80554 10.5428 8.51512 5.47957 15.4874 5.47957C17.1008 5.47957 18.6737 5.75063 20.1413 6.27038C22.3687 4.4366 25.5762 4.11129 28.1744 5.59244C28.8484 5.97664 29.0793 6.82754 28.6902 7.49299L26.5075 11.2258C27.0617 12.0975 27.486 13.0332 27.7671 14.0112H28.1692C29.7256 14.0112 30.9874 15.2571 30.9874 16.7938V19.5765C30.9874 21.1132 29.7256 22.3591 28.1692 22.3591H26.6011C26.2399 22.9478 25.8213 23.5064 25.351 24.0283V28.3287C25.351 29.8655 24.0893 31.1113 22.5328 31.1113H19.7146C18.1582 31.1113 16.8965 29.8655 16.8965 28.3287V28.1857C16.431 28.2319 15.9608 28.2552 15.4874 28.2552C15.014 28.2552 14.5437 28.2319 14.0783 28.1857V28.3287C14.0783 29.8655 12.8165 31.1113 11.2601 31.1113H8.44191C6.88547 31.1113 5.62372 29.8655 5.62372 28.3287C5.62372 27.5603 6.2546 26.9374 7.03281 26.9374C7.81103 26.9374 8.44191 27.5603 8.44191 28.3287H11.2601V26.549C11.2601 25.654 12.1034 24.9918 12.9865 25.1934C13.7956 25.3781 14.6338 25.4726 15.4874 25.4726C16.3409 25.4726 17.1791 25.3781 17.9882 25.1934C18.8713 24.9918 19.7146 25.654 19.7146 26.549V28.3287H22.5328V23.4796C22.5328 23.1148 22.6779 22.7646 22.9369 22.5044C23.5828 21.8555 24.114 21.1271 24.5116 20.3442C24.7505 19.8736 25.238 19.5765 25.7712 19.5765H28.1692V16.7938H26.6399C25.9495 16.7938 25.3607 16.2998 25.2493 15.627C25.0411 14.37 24.5165 13.1778 23.7161 12.1241C23.3775 11.6784 23.3408 11.0762 23.623 10.5937L25.4244 7.51287C24.0035 7.25233 22.5081 7.72512 21.5093 8.82344Z" fill="white"/>
<path id="Combined Shape" fill-rule="evenodd" clip-rule="evenodd" d="M15.9723 13.2298H16.8674C17.3861 13.2298 17.8066 13.6515 17.8066 14.1718C17.8066 14.692 17.3861 15.1138 16.8674 15.1138H15.0331H14.0925L14.0778 16.0558H15.9428C16.9687 16.0558 17.8049 16.8814 17.8209 17.9103L17.8356 18.8523C17.8518 19.8927 17.0241 20.7493 15.9869 20.7656L15.9723 20.7657C15.9679 21.2822 15.5491 21.6995 15.0331 21.6995C14.5172 21.6995 14.0984 21.2822 14.094 20.7658H13.1548C12.6361 20.7658 12.2156 20.344 12.2156 19.8238C12.2156 19.3035 12.6361 18.8818 13.1548 18.8818L15.0331 18.8818L15.9575 18.8818L15.9428 17.9398H14.0778L14.0484 17.9396C13.0112 17.9233 12.1835 17.0667 12.1997 16.0263L12.2144 15.0843C12.2304 14.0554 13.0666 13.2298 14.0925 13.2298H14.094C14.094 12.7095 14.5144 12.2878 15.0331 12.2878C15.5518 12.2878 15.9723 12.7095 15.9723 13.2298Z" fill="#A7FAF2"/>
<path id="Path_2" d="M16.5745 6.39697L13.8196 6.98324C13.6164 6.05216 12.9496 5.28246 12.0272 4.95096C10.5646 4.42535 8.94741 5.16994 8.41508 6.61405C8.11895 7.41738 8.21329 8.2905 8.65345 9.00869L6.24236 10.4493C5.365 9.01776 5.17571 7.26598 5.76685 5.66234C6.83152 2.77412 10.0659 1.28494 12.9911 2.33617C14.8335 2.99832 16.1692 4.54018 16.5745 6.39697Z" fill="white"/>
<path id="Path_3" d="M0.00343423 15.8895C-0.0504109 15.1229 0.535299 14.4584 1.31165 14.4052C2.08801 14.3521 2.76102 14.9304 2.81486 15.697C2.81677 15.7242 2.8463 15.8545 2.90271 15.9592C2.93297 16.0154 2.94412 16.0259 2.95227 16.0288C3.05611 16.0654 3.29568 16.0492 3.72359 15.8863C4.44974 15.61 5.26529 15.9672 5.54516 16.6842C5.82504 17.4011 5.46326 18.2064 4.73711 18.4827C2.75188 19.2382 1.1786 18.6836 0.414826 17.2663C0.139986 16.7564 0.0303075 16.2721 0.00343423 15.8895Z" fill="white"/>
</g>
</svg>
