<svg xmlns="http://www.w3.org/2000/svg" width="38.17" height="38.17" viewBox="0 0 38.17 38.17"><defs><style>.a{fill:none;stroke:#00bab3;stroke-miterlimit:10;stroke-width:2px;}.b{fill:#00bab3;fill-rule:evenodd;}</style></defs><g transform="translate(1.203 1.203)"><ellipse class="a" cx="14.864" cy="14.864" rx="14.864" ry="14.864" transform="matrix(0.23, -0.973, 0.973, 0.23, 0, 28.932)"/><path class="b" d="M31.087,22.647c-.126-1.084-.387-1.4-.571-1.544a3.057,3.057,0,0,0-1.539-.358c-1.147-.077-3.082-.126-5.182-.126s-4.035.044-5.182.126a3.007,3.007,0,0,0-1.539.358c-.184.145-.445.46-.571,1.544a40.6,40.6,0,0,0,0,6.687c.126,1.084.387,1.4.571,1.544a3.007,3.007,0,0,0,1.539.358c1.147.077,3.082.126,5.182.126s4.04-.048,5.182-.126a3.057,3.057,0,0,0,1.539-.358c.184-.145.445-.46.571-1.544a40.6,40.6,0,0,0,0-6.687ZM22,28.328h0V23.654l4.485,2.337Z" transform="translate(-5.913 -8.111)"/></g></svg>