<svg xmlns="http://www.w3.org/2000/svg" width="38.17" height="38.17" viewBox="0 0 38.17 38.17"><defs><style>.a{fill:none;stroke:#00bab3;stroke-miterlimit:10;stroke-width:2px;}.b{fill:#00bab3;fill-rule:evenodd;}</style></defs><g transform="translate(1.203 1.203)"><ellipse class="a" cx="14.864" cy="14.864" rx="14.864" ry="14.864" transform="matrix(0.23, -0.973, 0.973, 0.23, 0, 28.932)"/><path class="b" d="M19.723,31.224H16.655V21.31h3.068v9.914ZM18.175,20.008h0a1.829,1.829,0,1,1,1.815-1.829,1.821,1.821,0,0,1-1.815,1.829Zm13.05,11.216H28.171V26.018c0-1.427-.542-2.226-1.669-2.226-1.229,0-1.868.827-1.868,2.226v5.206H21.692V21.31h2.942v1.335A3.456,3.456,0,0,1,27.62,21c2.1,0,3.6,1.282,3.6,3.939Z" transform="translate(-5.91 -5.907)"/></g></svg>