<svg width="19" height="19" viewBox="0 0 19 19" fill="none" xmlns="http://www.w3.org/2000/svg">
<path id="Combined Shape" fill-rule="evenodd" clip-rule="evenodd" d="M5.2432 0.200012H13.7566C16.6479 0.200012 19.0001 2.52747 19 5.38813V13.8119C19 16.6726 16.6479 19 13.7566 19H5.2432C2.3521 19 0 16.6727 0 13.8119V5.38813C0 2.52747 2.3521 0.200012 5.2432 0.200012ZM13.7567 17.332C15.7184 17.332 17.3143 15.7529 17.3143 13.8119H17.3142V5.38813C17.3142 3.44722 15.7183 1.86804 13.7566 1.86804H5.2432C3.28164 1.86804 1.68577 3.44722 1.68577 5.38813V13.8119C1.68577 15.7529 3.28164 17.3321 5.2432 17.332H13.7567ZM4.75 9.60012C4.75 7.00844 6.88081 4.90001 9.5 4.90001C12.1192 4.90001 14.25 7.00844 14.25 9.60012C14.25 12.1917 12.1192 14.3 9.5 14.3C6.88081 14.3 4.75 12.1917 4.75 9.60012ZM6.38556 9.60001C6.38556 11.2992 7.78277 12.6815 9.5 12.6815C11.2172 12.6815 12.6144 11.2992 12.6144 9.60001C12.6144 7.90071 11.2173 6.51829 9.5 6.51829C7.78266 6.51829 6.38556 7.90071 6.38556 9.60001ZM13.807 3.6773C14.0274 3.45832 14.3338 3.33335 14.6458 3.33335C14.9589 3.33335 15.2655 3.45832 15.4857 3.6773C15.707 3.89521 15.8333 4.19857 15.8333 4.50835C15.8333 4.81705 15.707 5.12041 15.4857 5.33939C15.2644 5.5573 14.9589 5.68335 14.6458 5.68335C14.3338 5.68335 14.0273 5.5573 13.807 5.33939C13.5857 5.12041 13.4583 4.81716 13.4583 4.50835C13.4583 4.19857 13.5856 3.89521 13.807 3.6773Z" fill="white"/>
</svg>
